<svg width="260" height="340" viewBox="0 0 260 340" fill="currentColor" xmlns="http://www.w3.org/2000/svg">
<g clip-path="url(#clip0_16_718)">
<rect y="20" width="10" height="10" fill="#444444"/>
<rect x="10" y="10" width="10" height="10" fill="#444444"/>
<rect x="20" width="10" height="10" fill="#444444"/>
<rect x="20" width="10" height="10" fill="#444444"/>
<path d="M30 0H40V10H30V0Z" fill="#444444"/>
<path d="M40 0H50V10H40V0Z" fill="#444444"/>
<path d="M40 30H50V40H40V30Z" fill="#444444"/>
<path d="M40 190H50V200H40V190Z" fill="#444444"/>
<path d="M40 245H50V255H40V245Z" fill="#444444"/>
<path d="M30 245H40V255H30V245Z" fill="#444444"/>
<path d="M30 40H40V50H30V40Z" fill="#444444"/>
<path d="M220 40H230V50H220V40Z" fill="#444444"/>
<path d="M30 50H40V60H30V50Z" fill="#444444"/>
<path d="M220 50H230V60H220V50Z" fill="#444444"/>
<path d="M30 60H40V70H30V60Z" fill="#444444"/>
<path d="M220 60H230V70H220V60Z" fill="#444444"/>
<path d="M30 70H40V80H30V70Z" fill="#444444"/>
<path d="M220 70H230V80H220V70Z" fill="#444444"/>
<path d="M30 80H40V90H30V80Z" fill="#444444"/>
<path d="M220 80H230V90H220V80Z" fill="#444444"/>
<path d="M30 90H40V100H30V90Z" fill="#444444"/>
<path d="M220 90H230V100H220V90Z" fill="#444444"/>
<path d="M30 100H40V110H30V100Z" fill="#444444"/>
<path d="M220 100H230V110H220V100Z" fill="#444444"/>
<path d="M30 110H40V120H30V110Z" fill="#444444"/>
<path d="M220 110H230V120H220V110Z" fill="#444444"/>
<path d="M30 120H40V130H30V120Z" fill="#444444"/>
<path d="M220 120H230V130H220V120Z" fill="#444444"/>
<path d="M30 130H40V140H30V130Z" fill="#444444"/>
<path d="M220 130H230V140H220V130Z" fill="#444444"/>
<path d="M30 140H40V150H30V140Z" fill="#444444"/>
<path d="M220 140H230V150H220V140Z" fill="#444444"/>
<path d="M30 150H40V160H30V150Z" fill="#444444"/>
<path d="M220 150H230V160H220V150Z" fill="#444444"/>
<path d="M30 160H40V170H30V160Z" fill="#444444"/>
<path d="M220 160H230V170H220V160Z" fill="#444444"/>
<path d="M30 170H40V180H30V170Z" fill="#444444"/>
<path d="M220 170H230V180H220V170Z" fill="#444444"/>
<path d="M30 180H40V190H30V180Z" fill="#444444"/>
<path d="M220 180H230V190H220V180Z" fill="#444444"/>
<path d="M50 0H60V10H50V0Z" fill="#444444"/>
<path d="M50 30H60V40H50V30Z" fill="#444444"/>
<path d="M50 190H60V200H50V190Z" fill="#444444"/>
<path d="M60 0H70V10H60V0Z" fill="#444444"/>
<path d="M60 30H70V40H60V30Z" fill="#444444"/>
<path d="M60 190H70V200H60V190Z" fill="#444444"/>
<path d="M70 0H80V10H70V0Z" fill="#444444"/>
<path d="M70 30H80V40H70V30Z" fill="#444444"/>
<path d="M70 190H80V200H70V190Z" fill="#444444"/>
<path d="M80 0H90V10H80V0Z" fill="#444444"/>
<path d="M80 30H90V40H80V30Z" fill="#444444"/>
<path d="M80 190H90V200H80V190Z" fill="#444444"/>
<path d="M90 0H100V10H90V0Z" fill="#444444"/>
<path d="M90 30H100V40H90V30Z" fill="#444444"/>
<path d="M90 190H100V200H90V190Z" fill="#444444"/>
<path d="M100 0H110V10H100V0Z" fill="#444444"/>
<path d="M100 30H110V40H100V30Z" fill="#444444"/>
<path d="M100 190H110V200H100V190Z" fill="#444444"/>
<path d="M110 0H120V10H110V0Z" fill="#444444"/>
<path d="M110 30H120V40H110V30Z" fill="#444444"/>
<path d="M110 190H120V200H110V190Z" fill="#444444"/>
<path d="M120 0H130V10H120V0Z" fill="#444444"/>
<path d="M120 30H130V40H120V30Z" fill="#444444"/>
<path d="M120 190H130V200H120V190Z" fill="#444444"/>
<path d="M130 0H140V10H130V0Z" fill="#444444"/>
<path d="M130 30H140V40H130V30Z" fill="#444444"/>
<path d="M130 190H140V200H130V190Z" fill="#444444"/>
<path d="M140 0H150V10H140V0Z" fill="#444444"/>
<path d="M140 30H150V40H140V30Z" fill="#444444"/>
<path d="M140 190H150V200H140V190Z" fill="#444444"/>
<path d="M150 0H160V10H150V0Z" fill="#444444"/>
<path d="M150 30H160V40H150V30Z" fill="#444444"/>
<path d="M150 190H160V200H150V190Z" fill="#444444"/>
<path d="M145 235H155V245H145V235Z" fill="#444444"/>
<path d="M160 0H170V10H160V0Z" fill="#444444"/>
<path d="M160 30H170V40H160V30Z" fill="#444444"/>
<path d="M160 190H170V200H160V190Z" fill="#444444"/>
<path d="M155 235H165V245H155V235Z" fill="#444444"/>
<path d="M170 0H180V10H170V0Z" fill="#444444"/>
<path d="M170 30H180V40H170V30Z" fill="#444444"/>
<path d="M170 190H180V200H170V190Z" fill="#444444"/>
<path d="M165 235H175V245H165V235Z" fill="#444444"/>
<path d="M180 0H190V10H180V0Z" fill="#444444"/>
<path d="M180 30H190V40H180V30Z" fill="#444444"/>
<path d="M180 190H190V200H180V190Z" fill="#444444"/>
<path d="M175 235H185V245H175V235Z" fill="#444444"/>
<path d="M190 0H200V10H190V0Z" fill="#444444"/>
<path d="M190 30H200V40H190V30Z" fill="#444444"/>
<path d="M190 190H200V200H190V190Z" fill="#444444"/>
<path d="M185 235H195V245H185V235Z" fill="#444444"/>
<path d="M200 0H210V10H200V0Z" fill="#444444"/>
<path d="M200 30H210V40H200V30Z" fill="#444444"/>
<path d="M200 190H210V200H200V190Z" fill="#444444"/>
<path d="M195 235H205V245H195V235Z" fill="#444444"/>
<path d="M210 0H220V10H210V0Z" fill="#444444"/>
<path d="M210 30H220V40H210V30Z" fill="#444444"/>
<path d="M210 190H220V200H210V190Z" fill="#444444"/>
<path d="M205 235H215V245H205V235Z" fill="#444444"/>
<path d="M220 0H230V10H220V0Z" fill="#444444"/>
<path d="M230 0H240V10H230V0Z" fill="#444444"/>
<path d="M240 10H250V20H240V10Z" fill="#444444"/>
<path d="M250 20H260V30H250V20Z" fill="#444444"/>
<path d="M250 30H260V40H250V30Z" fill="#444444"/>
<path d="M250 40H260V50H250V40Z" fill="#444444"/>
<path d="M250 50H260V60H250V50Z" fill="#444444"/>
<path d="M250 60H260V70H250V60Z" fill="#444444"/>
<path d="M250 70H260V80H250V70Z" fill="#444444"/>
<path d="M250 80H260V90H250V80Z" fill="#444444"/>
<path d="M250 90H260V100H250V90Z" fill="#444444"/>
<path d="M250 100H260V110H250V100Z" fill="#444444"/>
<path d="M250 110H260V120H250V110Z" fill="#444444"/>
<path d="M250 120H260V130H250V120Z" fill="#444444"/>
<path d="M250 130H260V140H250V130Z" fill="#444444"/>
<path d="M250 140H260V150H250V140Z" fill="#444444"/>
<path d="M250 150H260V160H250V150Z" fill="#444444"/>
<path d="M250 160H260V170H250V160Z" fill="#444444"/>
<path d="M250 170H260V180H250V170Z" fill="#444444"/>
<path d="M250 180H260V190H250V180Z" fill="#444444"/>
<path d="M250 190H260V200H250V190Z" fill="#444444"/>
<path d="M250 200H260V210H250V200Z" fill="#444444"/>
<path d="M250 210H260V220H250V210Z" fill="#444444"/>
<path d="M250 220H260V230H250V220Z" fill="#444444"/>
<path d="M250 230H260V240H250V230Z" fill="#444444"/>
<path d="M250 240H260V250H250V240Z" fill="#444444"/>
<path d="M250 250H260V260H250V250Z" fill="#444444"/>
<path d="M250 260H260V270H250V260Z" fill="#444444"/>
<path d="M250 270H260V280H250V270Z" fill="#444444"/>
<path d="M250 280H260V290H250V280Z" fill="#444444"/>
<path d="M240 290H250V300H240V290Z" fill="#444444"/>
<path d="M240 300H250V310H240V300Z" fill="#444444"/>
<path d="M240 310H250V320H240V310Z" fill="#444444"/>
<path d="M240 320H250V330H240V320Z" fill="#444444"/>
<path d="M240 330H250V340H240V330Z" fill="#444444"/>
<path d="M230 330H240V340H230V330Z" fill="#444444"/>
<path d="M220 330H230V340H220V330Z" fill="#444444"/>
<path d="M210 330H220V340H210V330Z" fill="#444444"/>
<path d="M200 330H210V340H200V330Z" fill="#444444"/>
<path d="M190 330H200V340H190V330Z" fill="#444444"/>
<path d="M180 330H190V340H180V330Z" fill="#444444"/>
<path d="M170 330H180V340H170V330Z" fill="#444444"/>
<path d="M160 330H170V340H160V330Z" fill="#444444"/>
<path d="M150 330H160V340H150V330Z" fill="#444444"/>
<path d="M140 330H150V340H140V330Z" fill="#444444"/>
<path d="M130 330H140V340H130V330Z" fill="#444444"/>
<path d="M120 330H130V340H120V330Z" fill="#444444"/>
<path d="M110 330H120V340H110V330Z" fill="#444444"/>
<path d="M100 330H110V340H100V330Z" fill="#444444"/>
<path d="M90 330H100V340H90V330Z" fill="#444444"/>
<path d="M80 330H90V340H80V330Z" fill="#444444"/>
<path d="M70 330H80V340H70V330Z" fill="#444444"/>
<path d="M60 330H70V340H60V330Z" fill="#444444"/>
<path d="M50 330H60V340H50V330Z" fill="#444444"/>
<path d="M40 330H50V340H40V330Z" fill="#444444"/>
<path d="M30 330H40V340H30V330Z" fill="#444444"/>
<path d="M20 330H30V340H20V330Z" fill="#444444"/>
<path d="M10 330H20V340H10V330Z" fill="#444444"/>
<path d="M10 320H20V330H10V320Z" fill="#444444"/>
<path d="M10 310H20V320H10V310Z" fill="#444444"/>
<path d="M10 300H20V310H10V300Z" fill="#444444"/>
<path d="M10 290H20V300H10V290Z" fill="#444444"/>
<path d="M0 280H10V290H0V280Z" fill="#444444"/>
<path d="M0 270H10V280H0V270Z" fill="#444444"/>
<path d="M0 260H10V270H0V260Z" fill="#444444"/>
<path d="M0 250H10V260H0V250Z" fill="#444444"/>
<path d="M0 240H10V250H0V240Z" fill="#444444"/>
<path d="M0 230H10V240H0V230Z" fill="#444444"/>
<path d="M0 220H10V230H0V220Z" fill="#444444"/>
<path d="M0 210H10V220H0V210Z" fill="#444444"/>
<path d="M0 200H10V210H0V200Z" fill="#444444"/>
<path d="M0 190H10V200H0V190Z" fill="#444444"/>
<path d="M0 180H10V190H0V180Z" fill="#444444"/>
<path d="M0 170H10V180H0V170Z" fill="#444444"/>
<path d="M0 160H10V170H0V160Z" fill="#444444"/>
<path d="M0 150H10V160H0V150Z" fill="#444444"/>
<path d="M0 140H10V150H0V140Z" fill="#444444"/>
<path d="M0 130H10V140H0V130Z" fill="#444444"/>
<path d="M0 120H10V130H0V120Z" fill="#444444"/>
<path d="M0 110H10V120H0V110Z" fill="#444444"/>
<path d="M0 100H10V110H0V100Z" fill="#444444"/>
<path d="M0 90H10V100H0V90Z" fill="#444444"/>
<path d="M0 80H10V90H0V80Z" fill="#444444"/>
<path d="M0 70H10V80H0V70Z" fill="#444444"/>
<path d="M0 60H10V70H0V60Z" fill="#444444"/>
<path d="M0 50H10V60H0V50Z" fill="#444444"/>
<path d="M0 40H10V50H0V40Z" fill="#444444"/>
<path d="M0 30H10V40H0V30Z" fill="#444444"/>
<path d="M20 290H30V300H20V290Z" fill="#444444"/>
<path d="M30 290H40V300H30V290Z" fill="#444444"/>
<path d="M40 290H50V300H40V290Z" fill="#444444"/>
<path d="M50 290H60V300H50V290Z" fill="#444444"/>
<path d="M60 290H70V300H60V290Z" fill="#444444"/>
<path d="M70 290H80V300H70V290Z" fill="#444444"/>
<path d="M80 290H90V300H80V290Z" fill="#444444"/>
<path d="M90 290H100V300H90V290Z" fill="#444444"/>
<path d="M100 290H110V300H100V290Z" fill="#444444"/>
<path d="M110 290H120V300H110V290Z" fill="#444444"/>
<path d="M120 290H130V300H120V290Z" fill="#444444"/>
<path d="M130 290H140V300H130V290Z" fill="#444444"/>
<path d="M140 290H150V300H140V290Z" fill="#444444"/>
<path d="M150 290H160V300H150V290Z" fill="#444444"/>
<path d="M160 290H170V300H160V290Z" fill="#444444"/>
<path d="M170 290H180V300H170V290Z" fill="#444444"/>
<path d="M180 290H190V300H180V290Z" fill="#444444"/>
<path d="M190 290H200V300H190V290Z" fill="#444444"/>
<path d="M200 290H210V300H200V290Z" fill="#444444"/>
<path d="M210 290H220V300H210V290Z" fill="#444444"/>
<path d="M220 290H230V300H220V290Z" fill="#444444"/>
<path d="M230 290H240V300H230V290Z" fill="#444444"/>
<path d="M55 80H65V90H55V80Z" fill="#444444"/>
<path d="M205 80H195V90H205V80Z" fill="#444444"/>
<path d="M65 90H75V100H65V90Z" fill="#444444"/>
<path d="M195 90H185V100H195V90Z" fill="#444444"/>
<path d="M75 100H85V110H75V100Z" fill="#444444"/>
<path d="M185 100H175V110H185V100Z" fill="#444444"/>
<path d="M95 120H105V130H95V120Z" fill="#444444"/>
<path d="M135 120H145V130H135V120Z" fill="#444444"/>
<path d="M135 110H145V120H135V110Z" fill="#444444"/>
<path d="M135 100H145V110H135V100Z" fill="#444444"/>
<path d="M135 90H145V100H135V90Z" fill="#444444"/>
<path d="M135 130H145V140H135V130Z" fill="#444444"/>
<path d="M65 80H75V90H65V80Z" fill="#444444"/>
<path d="M195 80H185V90H195V80Z" fill="#444444"/>
<path d="M75 90H85V100H75V90Z" fill="#444444"/>
<path d="M185 90H175V100H185V90Z" fill="#444444"/>
<path d="M85 100H95V110H85V100Z" fill="#444444"/>
<path d="M175 100H165V110H175V100Z" fill="#444444"/>
<path d="M85 110H95V120H85V110Z" fill="#444444"/>
<path d="M175 110H165V120H175V110Z" fill="#444444"/>
<path d="M105 120H115V130H105V120Z" fill="#444444"/>
<path d="M145 120H155V130H145V120Z" fill="#444444"/>
<path d="M75 80H85V90H75V80Z" fill="#444444"/>
<path d="M185 80H175V90H185V80Z" fill="#444444"/>
<path d="M85 90H95V100H85V90Z" fill="#444444"/>
<path d="M175 90H165V100H175V90Z" fill="#444444"/>
<path d="M95 100H105V110H95V100Z" fill="#444444"/>
<path d="M165 100H155V110H165V100Z" fill="#444444"/>
<path d="M95 110H105V120H95V110Z" fill="#444444"/>
<path d="M165 110H155V120H165V110Z" fill="#444444"/>
<path d="M115 120H125V130H115V120Z" fill="#444444"/>
<path d="M115 110H125V120H115V110Z" fill="#444444"/>
<path d="M115 100H125V110H115V100Z" fill="#444444"/>
<path d="M115 90H125V100H115V90Z" fill="#444444"/>
<path d="M115 130H125V140H115V130Z" fill="#444444"/>
<path d="M155 120H165V130H155V120Z" fill="#444444"/>
<path d="M105 110H115V120H105V110Z" fill="#444444"/>
<path d="M155 110H145V120H155V110Z" fill="#444444"/>
<path d="M125 120H135V130H125V120Z" fill="#444444"/>
<path d="M125 110H135V120H125V110Z" fill="#444444"/>
<path d="M125 100H135V110H125V100Z" fill="#444444"/>
<path d="M125 130H135V140H125V130Z" fill="#444444"/>
<path d="M125 140H135V150H125V140Z" fill="#444444"/>
</g>
<defs>
<clipPath id="clip0_16_718">
<rect width="260" height="340" fill="white"/>
</clipPath>
</defs>
</svg>
