<svg width="450" height="450" viewBox="0 0 450 450" fill="none" xmlns="http://www.w3.org/2000/svg">
<g clip-path="url(#clip0_22_2)">
<rect x="95" y="74" width="10" height="10" fill="white"/>
<rect x="105" y="64" width="10" height="10" fill="white"/>
<rect x="115" y="54" width="10" height="10" fill="white"/>
<rect x="115" y="54" width="10" height="10" fill="white"/>
<path d="M125 54H135V64H125V54Z" fill="white"/>
<path d="M135 54H145V64H135V54Z" fill="white"/>
<path d="M135 84H145V94H135V84Z" fill="white"/>
<path d="M135 244H145V254H135V244Z" fill="white"/>
<path d="M135 299H145V309H135V299Z" fill="white"/>
<path d="M125 299H135V309H125V299Z" fill="white"/>
<path d="M125 94H135V104H125V94Z" fill="white"/>
<path d="M315 94H325V104H315V94Z" fill="white"/>
<path d="M125 104H135V114H125V104Z" fill="white"/>
<path d="M315 104H325V114H315V104Z" fill="white"/>
<path d="M125 114H135V124H125V114Z" fill="white"/>
<path d="M315 114H325V124H315V114Z" fill="white"/>
<path d="M125 124H135V134H125V124Z" fill="white"/>
<path d="M315 124H325V134H315V124Z" fill="white"/>
<path d="M125 134H135V144H125V134Z" fill="white"/>
<path d="M315 134H325V144H315V134Z" fill="white"/>
<path d="M125 144H135V154H125V144Z" fill="white"/>
<path d="M315 144H325V154H315V144Z" fill="white"/>
<path d="M125 154H135V164H125V154Z" fill="white"/>
<path d="M315 154H325V164H315V154Z" fill="white"/>
<path d="M125 164H135V174H125V164Z" fill="white"/>
<path d="M315 164H325V174H315V164Z" fill="white"/>
<path d="M125 174H135V184H125V174Z" fill="white"/>
<path d="M315 174H325V184H315V174Z" fill="white"/>
<path d="M125 184H135V194H125V184Z" fill="white"/>
<path d="M315 184H325V194H315V184Z" fill="white"/>
<path d="M125 194H135V204H125V194Z" fill="white"/>
<path d="M315 194H325V204H315V194Z" fill="white"/>
<path d="M125 204H135V214H125V204Z" fill="white"/>
<path d="M315 204H325V214H315V204Z" fill="white"/>
<path d="M125 214H135V224H125V214Z" fill="white"/>
<path d="M315 214H325V224H315V214Z" fill="white"/>
<path d="M125 224H135V234H125V224Z" fill="white"/>
<path d="M315 224H325V234H315V224Z" fill="white"/>
<path d="M125 234H135V244H125V234Z" fill="white"/>
<path d="M315 234H325V244H315V234Z" fill="white"/>
<path d="M145 54H155V64H145V54Z" fill="white"/>
<path d="M145 84H155V94H145V84Z" fill="white"/>
<path d="M145 244H155V254H145V244Z" fill="white"/>
<path d="M155 54H165V64H155V54Z" fill="white"/>
<path d="M155 84H165V94H155V84Z" fill="white"/>
<path d="M155 244H165V254H155V244Z" fill="white"/>
<path d="M165 54H175V64H165V54Z" fill="white"/>
<path d="M165 84H175V94H165V84Z" fill="white"/>
<path d="M165 244H175V254H165V244Z" fill="white"/>
<path d="M175 54H185V64H175V54Z" fill="white"/>
<path d="M175 84H185V94H175V84Z" fill="white"/>
<path d="M175 244H185V254H175V244Z" fill="white"/>
<path d="M185 54H195V64H185V54Z" fill="white"/>
<path d="M185 84H195V94H185V84Z" fill="white"/>
<path d="M185 244H195V254H185V244Z" fill="white"/>
<path d="M195 54H205V64H195V54Z" fill="white"/>
<path d="M195 84H205V94H195V84Z" fill="white"/>
<path d="M195 244H205V254H195V244Z" fill="white"/>
<path d="M205 54H215V64H205V54Z" fill="white"/>
<path d="M205 84H215V94H205V84Z" fill="white"/>
<path d="M205 244H215V254H205V244Z" fill="white"/>
<path d="M215 54H225V64H215V54Z" fill="white"/>
<path d="M215 84H225V94H215V84Z" fill="white"/>
<path d="M215 244H225V254H215V244Z" fill="white"/>
<path d="M225 54H235V64H225V54Z" fill="white"/>
<path d="M225 84H235V94H225V84Z" fill="white"/>
<path d="M225 244H235V254H225V244Z" fill="white"/>
<path d="M235 54H245V64H235V54Z" fill="white"/>
<path d="M235 84H245V94H235V84Z" fill="white"/>
<path d="M235 244H245V254H235V244Z" fill="white"/>
<path d="M245 54H255V64H245V54Z" fill="white"/>
<path d="M245 84H255V94H245V84Z" fill="white"/>
<path d="M245 244H255V254H245V244Z" fill="white"/>
<path d="M240 289H250V299H240V289Z" fill="white"/>
<path d="M255 54H265V64H255V54Z" fill="white"/>
<path d="M255 84H265V94H255V84Z" fill="white"/>
<path d="M255 244H265V254H255V244Z" fill="white"/>
<path d="M250 289H260V299H250V289Z" fill="white"/>
<path d="M265 54H275V64H265V54Z" fill="white"/>
<path d="M265 84H275V94H265V84Z" fill="white"/>
<path d="M265 244H275V254H265V244Z" fill="white"/>
<path d="M260 289H270V299H260V289Z" fill="white"/>
<path d="M275 54H285V64H275V54Z" fill="white"/>
<path d="M275 84H285V94H275V84Z" fill="white"/>
<path d="M275 244H285V254H275V244Z" fill="white"/>
<path d="M270 289H280V299H270V289Z" fill="white"/>
<path d="M285 54H295V64H285V54Z" fill="white"/>
<path d="M285 84H295V94H285V84Z" fill="white"/>
<path d="M285 244H295V254H285V244Z" fill="white"/>
<path d="M280 289H290V299H280V289Z" fill="white"/>
<path d="M295 54H305V64H295V54Z" fill="white"/>
<path d="M295 84H305V94H295V84Z" fill="white"/>
<path d="M295 244H305V254H295V244Z" fill="white"/>
<path d="M290 289H300V299H290V289Z" fill="white"/>
<path d="M305 54H315V64H305V54Z" fill="white"/>
<path d="M305 84H315V94H305V84Z" fill="white"/>
<path d="M305 244H315V254H305V244Z" fill="white"/>
<path d="M300 289H310V299H300V289Z" fill="white"/>
<path d="M315 54H325V64H315V54Z" fill="white"/>
<path d="M325 54H335V64H325V54Z" fill="white"/>
<path d="M335 64H345V74H335V64Z" fill="white"/>
<path d="M345 74H355V84H345V74Z" fill="white"/>
<path d="M345 84H355V94H345V84Z" fill="white"/>
<path d="M345 94H355V104H345V94Z" fill="white"/>
<path d="M345 104H355V114H345V104Z" fill="white"/>
<path d="M345 114H355V124H345V114Z" fill="white"/>
<path d="M345 124H355V134H345V124Z" fill="white"/>
<path d="M345 134H355V144H345V134Z" fill="white"/>
<path d="M345 144H355V154H345V144Z" fill="white"/>
<path d="M345 154H355V164H345V154Z" fill="white"/>
<path d="M345 164H355V174H345V164Z" fill="white"/>
<path d="M345 174H355V184H345V174Z" fill="white"/>
<path d="M345 184H355V194H345V184Z" fill="white"/>
<path d="M345 194H355V204H345V194Z" fill="white"/>
<path d="M345 204H355V214H345V204Z" fill="white"/>
<path d="M345 214H355V224H345V214Z" fill="white"/>
<path d="M345 224H355V234H345V224Z" fill="white"/>
<path d="M345 234H355V244H345V234Z" fill="white"/>
<path d="M345 244H355V254H345V244Z" fill="white"/>
<path d="M345 254H355V264H345V254Z" fill="white"/>
<path d="M345 264H355V274H345V264Z" fill="white"/>
<path d="M345 274H355V284H345V274Z" fill="white"/>
<path d="M345 284H355V294H345V284Z" fill="white"/>
<path d="M345 294H355V304H345V294Z" fill="white"/>
<path d="M345 304H355V314H345V304Z" fill="white"/>
<path d="M345 314H355V324H345V314Z" fill="white"/>
<path d="M345 324H355V334H345V324Z" fill="white"/>
<path d="M345 334H355V344H345V334Z" fill="white"/>
<path d="M335 344H345V354H335V344Z" fill="white"/>
<path d="M335 354H345V364H335V354Z" fill="white"/>
<path d="M335 364H345V374H335V364Z" fill="white"/>
<path d="M335 374H345V384H335V374Z" fill="white"/>
<path d="M335 384H345V394H335V384Z" fill="white"/>
<path d="M325 384H335V394H325V384Z" fill="white"/>
<path d="M315 384H325V394H315V384Z" fill="white"/>
<path d="M305 384H315V394H305V384Z" fill="white"/>
<path d="M295 384H305V394H295V384Z" fill="white"/>
<path d="M285 384H295V394H285V384Z" fill="white"/>
<path d="M275 384H285V394H275V384Z" fill="white"/>
<path d="M265 384H275V394H265V384Z" fill="white"/>
<path d="M255 384H265V394H255V384Z" fill="white"/>
<path d="M245 384H255V394H245V384Z" fill="white"/>
<path d="M235 384H245V394H235V384Z" fill="white"/>
<path d="M225 384H235V394H225V384Z" fill="white"/>
<path d="M215 384H225V394H215V384Z" fill="white"/>
<path d="M205 384H215V394H205V384Z" fill="white"/>
<path d="M195 384H205V394H195V384Z" fill="white"/>
<path d="M185 384H195V394H185V384Z" fill="white"/>
<path d="M175 384H185V394H175V384Z" fill="white"/>
<path d="M165 384H175V394H165V384Z" fill="white"/>
<path d="M155 384H165V394H155V384Z" fill="white"/>
<path d="M145 384H155V394H145V384Z" fill="white"/>
<path d="M135 384H145V394H135V384Z" fill="white"/>
<path d="M125 384H135V394H125V384Z" fill="white"/>
<path d="M115 384H125V394H115V384Z" fill="white"/>
<path d="M105 384H115V394H105V384Z" fill="white"/>
<path d="M105 374H115V384H105V374Z" fill="white"/>
<path d="M105 364H115V374H105V364Z" fill="white"/>
<path d="M105 354H115V364H105V354Z" fill="white"/>
<path d="M105 344H115V354H105V344Z" fill="white"/>
<path d="M95 334H105V344H95V334Z" fill="white"/>
<path d="M95 324H105V334H95V324Z" fill="white"/>
<path d="M95 314H105V324H95V314Z" fill="white"/>
<path d="M95 304H105V314H95V304Z" fill="white"/>
<path d="M95 294H105V304H95V294Z" fill="white"/>
<path d="M95 284H105V294H95V284Z" fill="white"/>
<path d="M95 274H105V284H95V274Z" fill="white"/>
<path d="M95 264H105V274H95V264Z" fill="white"/>
<path d="M95 254H105V264H95V254Z" fill="white"/>
<path d="M95 244H105V254H95V244Z" fill="white"/>
<path d="M95 234H105V244H95V234Z" fill="white"/>
<path d="M95 224H105V234H95V224Z" fill="white"/>
<path d="M95 214H105V224H95V214Z" fill="white"/>
<path d="M95 204H105V214H95V204Z" fill="white"/>
<path d="M95 194H105V204H95V194Z" fill="white"/>
<path d="M95 184H105V194H95V184Z" fill="white"/>
<path d="M95 174H105V184H95V174Z" fill="white"/>
<path d="M95 164H105V174H95V164Z" fill="white"/>
<path d="M95 154H105V164H95V154Z" fill="white"/>
<path d="M95 144H105V154H95V144Z" fill="white"/>
<path d="M95 134H105V144H95V134Z" fill="white"/>
<path d="M95 124H105V134H95V124Z" fill="white"/>
<path d="M95 114H105V124H95V114Z" fill="white"/>
<path d="M95 104H105V114H95V104Z" fill="white"/>
<path d="M95 94H105V104H95V94Z" fill="white"/>
<path d="M95 84H105V94H95V84Z" fill="white"/>
<path d="M115 344H125V354H115V344Z" fill="white"/>
<path d="M125 344H135V354H125V344Z" fill="white"/>
<path d="M135 344H145V354H135V344Z" fill="white"/>
<path d="M145 344H155V354H145V344Z" fill="white"/>
<path d="M155 344H165V354H155V344Z" fill="white"/>
<path d="M165 344H175V354H165V344Z" fill="white"/>
<path d="M175 344H185V354H175V344Z" fill="white"/>
<path d="M185 344H195V354H185V344Z" fill="white"/>
<path d="M195 344H205V354H195V344Z" fill="white"/>
<path d="M205 344H215V354H205V344Z" fill="white"/>
<path d="M215 344H225V354H215V344Z" fill="white"/>
<path d="M225 344H235V354H225V344Z" fill="white"/>
<path d="M235 344H245V354H235V344Z" fill="white"/>
<path d="M245 344H255V354H245V344Z" fill="white"/>
<path d="M255 344H265V354H255V344Z" fill="white"/>
<path d="M265 344H275V354H265V344Z" fill="white"/>
<path d="M275 344H285V354H275V344Z" fill="white"/>
<path d="M285 344H295V354H285V344Z" fill="white"/>
<path d="M295 344H305V354H295V344Z" fill="white"/>
<path d="M305 344H315V354H305V344Z" fill="white"/>
<path d="M315 344H325V354H315V344Z" fill="white"/>
<path d="M325 344H335V354H325V344Z" fill="white"/>
<path d="M150 134H160V144H150V134Z" fill="white"/>
<path d="M300 134H290V144H300V134Z" fill="white"/>
<path d="M160 144H170V154H160V144Z" fill="white"/>
<path d="M290 144H280V154H290V144Z" fill="white"/>
<path d="M170 154H180V164H170V154Z" fill="white"/>
<path d="M280 154H270V164H280V154Z" fill="white"/>
<path d="M190 174H200V184H190V174Z" fill="white"/>
<path d="M230 174H240V184H230V174Z" fill="white"/>
<path d="M230 164H240V174H230V164Z" fill="white"/>
<path d="M230 154H240V164H230V154Z" fill="white"/>
<path d="M230 144H240V154H230V144Z" fill="white"/>
<path d="M230 184H240V194H230V184Z" fill="white"/>
<path d="M160 134H170V144H160V134Z" fill="white"/>
<path d="M290 134H280V144H290V134Z" fill="white"/>
<path d="M170 144H180V154H170V144Z" fill="white"/>
<path d="M280 144H270V154H280V144Z" fill="white"/>
<path d="M180 154H190V164H180V154Z" fill="white"/>
<path d="M270 154H260V164H270V154Z" fill="white"/>
<path d="M180 164H190V174H180V164Z" fill="white"/>
<path d="M270 164H260V174H270V164Z" fill="white"/>
<path d="M200 174H210V184H200V174Z" fill="white"/>
<path d="M240 174H250V184H240V174Z" fill="white"/>
<path d="M170 134H180V144H170V134Z" fill="white"/>
<path d="M280 134H270V144H280V134Z" fill="white"/>
<path d="M180 144H190V154H180V144Z" fill="white"/>
<path d="M270 144H260V154H270V144Z" fill="white"/>
<path d="M190 154H200V164H190V154Z" fill="white"/>
<path d="M260 154H250V164H260V154Z" fill="white"/>
<path d="M190 164H200V174H190V164Z" fill="white"/>
<path d="M260 164H250V174H260V164Z" fill="white"/>
<path d="M210 174H220V184H210V174Z" fill="white"/>
<path d="M210 164H220V174H210V164Z" fill="white"/>
<path d="M210 154H220V164H210V154Z" fill="white"/>
<path d="M210 144H220V154H210V144Z" fill="white"/>
<path d="M210 184H220V194H210V184Z" fill="white"/>
<path d="M250 174H260V184H250V174Z" fill="white"/>
<path d="M200 164H210V174H200V164Z" fill="white"/>
<path d="M250 164H240V174H250V164Z" fill="white"/>
<path d="M220 174H230V184H220V174Z" fill="white"/>
<path d="M220 164H230V174H220V164Z" fill="white"/>
<path d="M220 154H230V164H220V154Z" fill="white"/>
<path d="M220 184H230V194H220V184Z" fill="white"/>
<path d="M220 194H230V204H220V194Z" fill="white"/>
</g>
<defs>
<clipPath id="clip0_22_2">
<rect width="260" height="340" fill="white" transform="translate(95 54)"/>
</clipPath>
</defs>
</svg>
